<?xml version="1.0" encoding="UTF-8"?><svg id="Layer_1" xmlns="http://www.w3.org/2000/svg" viewBox="0 0 1405.15 1038.27"><defs><style>.cls-1{fill:#3f7a48;}.cls-2{fill:#f5f7f5;}.cls-3{fill:#f2f9f3;}</style></defs><g><path class="cls-3" d="m819.5,635.96c-.62-14.5-1.28-29.08-2-43.72-.49-10.02-1.01-20-1.54-29.95,28.7-1.62,57.4-3.24,86.1-4.85-27.52,26.17-55.04,52.35-82.56,78.52Z"/><path class="cls-3" d="m415.35,947.71c-4.38-19.14-8.79-38.26-13.21-57.39-4.6-19.86-9.22-39.71-13.87-59.56,31.12,17.6,62.24,35.2,93.36,52.79-11.88,11.45-23.75,22.92-35.61,34.4-10.24,9.91-20.46,19.83-30.67,29.76Z"/><polygon class="cls-3" points="496.22 861.56 493.62 775.5 568.8 812.23 496.22 861.56"/><polygon class="cls-3" points="572.55 837.36 581.66 734.91 673.6 773.9 572.55 837.36"/><polygon class="cls-3" points="651.09 788.53 656.75 683.95 750.05 717.28 651.09 788.53"/><path class="cls-3" d="m730.62,713.33c2.1-25.14,4.2-50.28,6.31-75.43,24.84,6.43,49.67,12.86,74.51,19.29-26.94,18.71-53.88,37.42-80.82,56.13Z"/><path class="cls-1" d="m1034.17,301.92c-83.77,198.35-191.25,311.95-275.09,379.37-165.19,132.83-351.7,201.62-370.19,306.3-1.52,8.58,2.1,22.14,12.13,33.51,64.32,72.95,348.99-98.98,651.29-281.55,0,0,276.2-166.81,341.47-342.55,15.9-42.81,11.79-74.08,7.54-91.13-14.05-56.44-66.19-104.06-115.26-113.04-1.65-.3-3.02-.52-3.43-.57-9.65-1.25-33.62-.99-98.16,26.42-66.76,28.35-117.34,60.17-150.29,83.25Z"/></g><g><ellipse class="cls-1" cx="1223.1" cy="146.76" rx="140.03" ry="105.41" transform="translate(954.1 1348.9) rotate(-84.23)"/><ellipse class="cls-1" cx="1023.51" cy="139.73" rx="140.03" ry="105.41" transform="translate(781.57 1144.01) rotate(-84.23)"/><g><polygon class="cls-3" points="747.06 434.35 720.9 478.8 657.96 442.77 747.06 434.35"/><path class="cls-3" d="m643.01,438.45c-5.03,24.24-10.05,48.48-15.08,72.72l-57.6-61.83c24.23-3.63,48.45-7.26,72.68-10.89Z"/><polygon class="cls-3" points="548.99 450.67 532.99 515.49 479 454.35 548.99 450.67"/><polygon class="cls-3" points="387.44 457.29 470.33 454.73 438.42 539.9 387.44 457.29"/><polygon class="cls-3" points="266.12 455.3 365.8 457.49 336.75 545.75 266.12 455.3"/><path class="cls-3" d="m229.89,440c-12.95,36.33-25.9,72.65-38.85,108.98l-66.26-133.91c15.13,5.96,33,11.88,53.37,16.61,18.97,4.41,36.42,6.93,51.75,8.32Z"/><path class="cls-1" d="m2.28,297.13c-10.61-57.76,17.19-131.55,55.18-134.83,28.61-2.47,61.94,35.14,80.87,88.61,0,0,16.7-98.86,85.57-90.56,2.37.29,15.6,1.69,26.52,10.27,25.42,19.96,27.86,70.16,6.78,124.48,78.61,20.6,197.55,41.09,340.05,25.14,81.81-9.16,151.48-28.1,206.54-47.66,0,0,221.84-104.17,373.87-104.33,41.48-.04,77.21,11.1,80.55,12.16,48.54,15.5,82.53,42.5,102.4,61.29,11.18,14.61,59,80.05,38.48,143.62-26.6,82.4-147.49,98.04-195.95,104.31-135.62,17.55-245.6-43.26-294.37-75.06-173.72,24.36-322.72,35.2-438.44,40.15-170.9,7.32-335.64,5.75-422.04-77.16C12.18,342.93,4.29,308.1,2.28,297.13Z"/><ellipse class="cls-3" cx="75.3" cy="240.32" rx="33.85" ry="21.54" transform="translate(-171.38 291.08) rotate(-84.23)"/><ellipse class="cls-3" cx="215.79" cy="235.19" rx="36.16" ry="19.24" transform="translate(-39.91 426.24) rotate(-84.23)"/></g><ellipse class="cls-2" cx="1050.22" cy="150.94" rx="85.4" ry="51.55" transform="translate(794.44 1180.66) rotate(-84.23)"/><ellipse class="cls-2" cx="1218.06" cy="127.69" rx="85.4" ry="51.55" transform="translate(968.54 1326.74) rotate(-84.23)"/><ellipse cx="1061.14" cy="180.65" rx="50.78" ry="26.93" transform="translate(774.7 1218.25) rotate(-84.23)"/><ellipse cx="1228.98" cy="157.4" rx="50.78" ry="26.93" transform="translate(948.79 1364.33) rotate(-84.23)"/></g></svg>